<svg width="48" height="45" viewBox="0 0 48 45" fill="none" xmlns="http://www.w3.org/2000/svg">
<path d="M46.16 5.06H1.22998V16.36H46.16V5.06Z" stroke="#3A3734" stroke-width="2" stroke-miterlimit="10" stroke-linecap="round" stroke-linejoin="round"/>
<path d="M42.9699 1.03H4.41992V4.97H42.9699V1.03Z" stroke="#3A3734" stroke-width="2" stroke-miterlimit="10" stroke-linecap="round" stroke-linejoin="round"/>
<path d="M40.11 16.36H7.27002V39.81H40.11V16.36Z" stroke="#3A3734" stroke-width="2" stroke-miterlimit="10" stroke-linecap="round" stroke-linejoin="round"/>
<path d="M42.9699 39.81H4.41992V43.94H42.9699V39.81Z" stroke="#3A3734" stroke-width="2" stroke-miterlimit="10" stroke-linecap="round" stroke-linejoin="round"/>
<path d="M29.66 28.44C29.66 28.44 33.83 27.49 33.83 31.01C33.83 33.41 29.66 35.56 29.66 35.56" stroke="#3A3734" stroke-width="2" stroke-miterlimit="10" stroke-linecap="round" stroke-linejoin="round"/>
<path d="M26.05 39.81C26.63 39.81 27.18 39.54 27.68 39.16C28.97 38.17 29.66 36.64 29.66 35.06V26.97H23.4H17.14V35.06C17.14 36.64 17.83 38.18 19.12 39.16C19.62 39.54 20.17 39.81 20.75 39.81" stroke="#3A3734" stroke-width="2" stroke-miterlimit="10" stroke-linecap="round" stroke-linejoin="round"/>
<path d="M27.28 16.36H19.66V23.29H27.28V16.36Z" stroke="#3A3734" stroke-width="2" stroke-miterlimit="10" stroke-linecap="round" stroke-linejoin="round"/>
<path d="M27.48 18.95H36.29C37.11 18.95 37.78 19.62 37.78 20.44C37.78 21.26 37.11 21.93 36.29 21.93H27.48" stroke="#3A3734" stroke-width="2" stroke-miterlimit="10" stroke-linecap="round" stroke-linejoin="round"/>
<path d="M11.53 13.46C13.0488 13.46 14.28 12.2288 14.28 10.71C14.28 9.19121 13.0488 7.95999 11.53 7.95999C10.0112 7.95999 8.78003 9.19121 8.78003 10.71C8.78003 12.2288 10.0112 13.46 11.53 13.46Z" stroke="#3A3734" stroke-width="2" stroke-miterlimit="10" stroke-linecap="round" stroke-linejoin="round"/>
<path d="M18.91 10.71H21.91" stroke="#3A3734" stroke-width="2" stroke-miterlimit="10" stroke-linecap="round" stroke-linejoin="round"/>
<path d="M24.91 10.71H27.91" stroke="#3A3734" stroke-width="2" stroke-miterlimit="10" stroke-linecap="round" stroke-linejoin="round"/>
<path d="M30.91 10.71H33.91" stroke="#3A3734" stroke-width="2" stroke-miterlimit="10" stroke-linecap="round" stroke-linejoin="round"/>
<path d="M7.73999 10.71H15.16" stroke="#3A3734" stroke-width="2" stroke-miterlimit="10" stroke-linecap="round" stroke-linejoin="round"/>
</svg>
