<svg width="39" height="49" viewBox="0 0 39 49" fill="none" xmlns="http://www.w3.org/2000/svg">
<path d="M26.13 47.52H8.79999C6.75999 47.52 5.10999 45.87 5.10999 43.83V13.71H29.82V43.83C29.82 45.87 28.17 47.52 26.13 47.52Z" stroke="#3A3734" stroke-width="2" stroke-miterlimit="10" stroke-linecap="round" stroke-linejoin="round"/>
<path d="M29.82 9.25H1.01001C1.01001 11.71 2.99999 13.7 5.45999 13.7H29.81V9.25H29.82Z" stroke="#3A3734" stroke-width="2" stroke-miterlimit="10" stroke-linecap="round" stroke-linejoin="round"/>
<path d="M29.82 9.25H5.10999V7.97C5.10999 5.93 6.75999 4.28 8.79999 4.28H26.13C28.17 4.28 29.82 5.93 29.82 7.97V9.25Z" stroke="#3A3734" stroke-width="2" stroke-miterlimit="10" stroke-linecap="round" stroke-linejoin="round"/>
<path d="M19.49 4.28H14.11V4.20999C14.11 2.72999 15.31 1.51999 16.8 1.51999C18.28 1.51999 19.49 2.71999 19.49 4.20999V4.28Z" stroke="#3A3734" stroke-width="2" stroke-miterlimit="10" stroke-linecap="round" stroke-linejoin="round"/>
<path d="M33.46 39.1H29.83V13.71H33.46C35.62 13.71 37.37 15.46 37.37 17.62V35.19C37.37 37.34 35.62 39.1 33.46 39.1Z" stroke="#3A3734" stroke-width="2" stroke-miterlimit="10" stroke-linecap="round" stroke-linejoin="round"/>
<path d="M29.82 28.6H5.10999V31.64H29.82V28.6Z" stroke="#3A3734" stroke-width="2" stroke-miterlimit="10" stroke-linecap="round" stroke-linejoin="round"/>
<path d="M16.8 14.1V27.85" stroke="#3A3734" stroke-width="2" stroke-miterlimit="10" stroke-linecap="round" stroke-linejoin="round"/>
</svg>
